<svg width="287" height="51" viewBox="0 0 287 51" fill="none" xmlns="http://www.w3.org/2000/svg">
<path d="M0.96875 25.2812C0.96875 21.8021 1.625 18.5625 2.9375 15.5625C4.25 12.5417 6.14583 9.92708 8.625 7.71875C11.125 5.48958 14.1667 3.73958 17.75 2.46875C21.3542 1.19792 25.4271 0.5625 29.9688 0.5625C33.9479 0.5625 37.5938 0.96875 40.9062 1.78125C44.2396 2.57292 47.3333 3.79167 50.1875 5.4375L45.625 12.9375C44.7708 12.375 43.7812 11.875 42.6562 11.4375C41.5521 11 40.3646 10.6354 39.0938 10.3438C37.8438 10.0312 36.5417 9.79167 35.1875 9.625C33.8542 9.45833 32.5312 9.375 31.2188 9.375C28.0521 9.375 25.2292 9.77083 22.75 10.5625C20.2708 11.3333 18.1771 12.4271 16.4688 13.8438C14.7812 15.2396 13.4896 16.9167 12.5938 18.875C11.7188 20.8125 11.2812 22.9479 11.2812 25.2812C11.2812 27.6979 11.7396 29.9167 12.6562 31.9375C13.5729 33.9583 14.8958 35.7083 16.625 37.1875C18.375 38.6458 20.5 39.7917 23 40.625C25.5208 41.4375 28.3646 41.8438 31.5312 41.8438C32.9688 41.8438 34.3958 41.7396 35.8125 41.5312C37.2292 41.3229 38.5938 41.0417 39.9062 40.6875C41.2396 40.3125 42.5208 39.875 43.75 39.375C44.9792 38.8542 46.125 38.2917 47.1875 37.6875L51.75 45.1875C49.0833 46.8958 46 48.2396 42.5 49.2188C39 50.1771 35.2812 50.6562 31.3438 50.6562C26.3229 50.6562 21.9167 50.0104 18.125 48.7188C14.3333 47.4062 11.1667 45.6146 8.625 43.3438C6.08333 41.0521 4.16667 38.3646 2.875 35.2812C1.60417 32.1771 0.96875 28.8438 0.96875 25.2812ZM59.8125 25.4375C59.8125 21.75 60.4896 18.375 61.8438 15.3125C63.1979 12.25 65.0938 9.625 67.5312 7.4375C69.9896 5.22917 72.9271 3.52083 76.3438 2.3125C79.7812 1.10417 83.5833 0.5 87.75 0.5C91.8958 0.5 95.6875 1.10417 99.125 2.3125C102.562 3.52083 105.5 5.22917 107.938 7.4375C110.396 9.625 112.302 12.25 113.656 15.3125C115.01 18.375 115.688 21.75 115.688 25.4375C115.688 29.1458 115.01 32.5521 113.656 35.6562C112.302 38.7396 110.396 41.3958 107.938 43.625C105.5 45.8542 102.562 47.5938 99.125 48.8438C95.6875 50.0729 91.8958 50.6875 87.75 50.6875C83.5833 50.6875 79.7812 50.0729 76.3438 48.8438C72.9271 47.5938 69.9896 45.8542 67.5312 43.625C65.0938 41.3958 63.1979 38.7396 61.8438 35.6562C60.4896 32.5521 59.8125 29.1458 59.8125 25.4375ZM69.7188 25.4375C69.7188 27.9583 70.1667 30.2292 71.0625 32.25C71.9792 34.2708 73.2396 36 74.8438 37.4375C76.4688 38.8542 78.375 39.9479 80.5625 40.7188C82.7708 41.4896 85.1667 41.875 87.75 41.875C90.3333 41.875 92.7188 41.4896 94.9062 40.7188C97.1146 39.9479 99.0208 38.8542 100.625 37.4375C102.229 36 103.49 34.2708 104.406 32.25C105.323 30.2292 105.781 27.9583 105.781 25.4375C105.781 22.9167 105.323 20.6562 104.406 18.6562C103.49 16.6562 102.229 14.9688 100.625 13.5938C99.0208 12.1979 97.1146 11.1354 94.9062 10.4062C92.7188 9.67708 90.3333 9.3125 87.75 9.3125C85.1667 9.3125 82.7708 9.67708 80.5625 10.4062C78.375 11.1354 76.4688 12.1979 74.8438 13.5938C73.2396 14.9688 71.9792 16.6562 71.0625 18.6562C70.1667 20.6562 69.7188 22.9167 69.7188 25.4375Z" fill="#3F38F5"/>
<path d="M126.625 1.15625H136.531L166.969 17.0938V1.15625H176.875V50H166.969V27.5938L136.531 11.75V50H126.625V1.15625ZM190.688 1.15625H234.375V9.84375H200.594V22.625H229.281V30.7812H200.594V50H190.688V1.15625ZM258.656 9.84375H240.625V1.15625H286.594V9.84375H268.562V50H258.656V9.84375Z" fill="white"/>
</svg>
