<svg width="96" height="96" viewBox="0 0 96 96" fill="none" xmlns="http://www.w3.org/2000/svg">
<g clip-path="url(#clip0_1653_390)">
<path d="M75.626 61.248V20.248C75.626 15.9855 72.1385 12.498 67.876 12.498H13.626C9.36348 12.498 5.87598 15.9855 5.87598 20.248V61.248C5.87598 65.5105 9.36348 68.998 13.626 68.998H67.876C72.1385 68.998 75.626 65.5105 75.626 61.248ZM67.876 61.248H13.626V20.248H67.876V61.248ZM91.126 34.123V76.748C91.126 81.0105 87.6385 84.498 83.376 84.498H17.501C17.501 80.623 17.501 81.0105 17.501 76.748H83.376V34.123C87.6385 34.123 87.251 34.123 91.126 34.123Z" fill="#3F38F5"/>
<path d="M52.1875 33.7143H37.9375V37.2857H48.625C50.5844 37.2857 52.1875 38.8929 52.1875 40.8571V51.5714C52.1875 53.5357 50.5844 55.1429 48.625 55.1429H45.0625V58.7143H37.9375V55.1429H30.8125V48H45.0625V44.4286H34.375C32.4156 44.4286 30.8125 42.8214 30.8125 40.8571V30.1429C30.8125 28.1786 32.4156 26.5714 34.375 26.5714H37.9375V23H45.0625V26.5714H52.1875V33.7143Z" fill="#3F38F5"/>
</g>
<defs>
<clipPath id="clip0_1653_390">
<rect width="96" height="96" fill="white"/>
</clipPath>
</defs>
</svg>
